<svg width="17" height="34" viewBox="0 0 17 34" fill="none" xmlns="http://www.w3.org/2000/svg">
<path d="M16.9297 22.4062C16.9297 24.138 16.2852 25.5508 14.9961 26.6445C13.707 27.7383 11.9232 28.4284 9.64453 28.7148V33.3242H8.0625V28.793C6.86458 28.7669 5.55599 28.6237 4.13672 28.3633C2.73047 28.0898 1.61068 27.7578 0.777344 27.3672V25.3555C1.75391 25.8242 2.91927 26.2214 4.27344 26.5469C5.64062 26.8724 6.90365 27.0352 8.0625 27.0352V17.1133C6.17448 16.5404 4.77474 15.9674 3.86328 15.3945C2.95182 14.8216 2.28776 14.1445 1.87109 13.3633C1.45443 12.582 1.24609 11.6315 1.24609 10.5117C1.24609 8.89714 1.85807 7.54297 3.08203 6.44922C4.31901 5.34245 5.97917 4.65885 8.0625 4.39844V0.648438H9.64453V4.35938C12.2096 4.47656 14.4948 4.94531 16.5 5.76562L15.8555 7.52344C14.0195 6.71615 11.9492 6.2474 9.64453 6.11719V15.6094C12.418 16.4688 14.3255 17.4062 15.3672 18.4219C16.4089 19.4375 16.9297 20.7656 16.9297 22.4062ZM14.7812 22.3281C14.7812 21.2214 14.3711 20.3099 13.5508 19.5938C12.7305 18.8646 11.4284 18.2396 9.64453 17.7188V26.918C11.2331 26.7487 12.4831 26.2604 13.3945 25.4531C14.319 24.6458 14.7812 23.6042 14.7812 22.3281ZM3.375 10.5117C3.375 11.6315 3.74609 12.5495 4.48828 13.2656C5.23047 13.9818 6.42188 14.5872 8.0625 15.082V6.23438C6.51302 6.44271 5.34115 6.9375 4.54688 7.71875C3.76562 8.5 3.375 9.43099 3.375 10.5117Z" fill="#242121"/>
</svg>
